<svg width="500" height="500" viewBox="0 0 500 500" fill="none" xmlns="http://www.w3.org/2000/svg">
<g id="Astronaut 1">
<path id="star-upper" d="M316.698 59.7539L318.278 62.9538C318.372 63.1478 318.513 63.3156 318.687 63.4428C318.861 63.5701 319.064 63.6528 319.278 63.6839L322.813 64.1839C323.06 64.2192 323.292 64.3232 323.483 64.484C323.674 64.6447 323.816 64.8558 323.893 65.0932C323.97 65.3307 323.979 65.585 323.919 65.8273C323.859 66.0695 323.732 66.2901 323.553 66.4639L320.998 68.9639C320.842 69.1144 320.726 69.3006 320.659 69.5062C320.592 69.7118 320.576 69.9307 320.613 70.1439L321.213 73.6439C321.255 73.8893 321.228 74.1417 321.134 74.3726C321.041 74.6035 320.885 74.8035 320.683 74.9502C320.482 75.0969 320.244 75.1844 319.995 75.2027C319.747 75.221 319.498 75.1694 319.278 75.0538L316.113 73.3939C315.922 73.2927 315.709 73.2398 315.493 73.2398C315.276 73.2398 315.064 73.2927 314.873 73.3939L311.708 75.0538C311.487 75.1708 311.238 75.2235 310.988 75.2059C310.739 75.1882 310.5 75.101 310.298 74.9541C310.096 74.8072 309.939 74.6065 309.845 74.3749C309.751 74.1433 309.724 73.89 309.768 73.6439L310.373 70.1439C310.409 69.9307 310.393 69.7118 310.326 69.5062C310.259 69.3006 310.143 69.1144 309.988 68.9639L307.433 66.4639C307.253 66.2901 307.126 66.0695 307.066 65.8273C307.006 65.585 307.015 65.3307 307.092 65.0932C307.169 64.8558 307.311 64.6447 307.502 64.484C307.693 64.3232 307.925 64.2192 308.173 64.1839L311.708 63.6839C311.921 63.6528 312.124 63.5701 312.298 63.4428C312.472 63.3156 312.613 63.1478 312.708 62.9538L314.288 59.7539C314.398 59.5278 314.569 59.3373 314.782 59.204C314.995 59.0707 315.241 59 315.493 59C315.744 59 315.99 59.0707 316.203 59.204C316.416 59.3373 316.588 59.5278 316.698 59.7539V59.7539Z" fill="#FEC272"/>
<path id="star-lower" d="M147.538 398.399L148.863 401.084C148.942 401.247 149.06 401.388 149.206 401.494C149.353 401.601 149.523 401.669 149.703 401.694L152.668 402.124C152.874 402.154 153.068 402.242 153.228 402.376C153.388 402.511 153.506 402.688 153.571 402.886C153.635 403.085 153.643 403.298 153.593 403.501C153.543 403.703 153.437 403.888 153.288 404.034L151.143 406.124C151.011 406.251 150.913 406.409 150.857 406.584C150.801 406.758 150.789 406.944 150.823 407.124L151.323 410.074C151.357 410.28 151.333 410.491 151.254 410.684C151.175 410.877 151.044 411.045 150.876 411.168C150.707 411.291 150.508 411.364 150.3 411.381C150.092 411.397 149.883 411.354 149.698 411.259L147.048 409.864C146.887 409.78 146.709 409.736 146.528 409.736C146.347 409.736 146.168 409.78 146.008 409.864L143.368 411.249C143.182 411.346 142.973 411.39 142.764 411.375C142.555 411.36 142.355 411.286 142.186 411.163C142.017 411.039 141.885 410.871 141.807 410.677C141.729 410.483 141.706 410.27 141.743 410.064L142.243 407.114C142.274 406.933 142.26 406.748 142.204 406.574C142.147 406.4 142.049 406.242 141.918 406.114L139.778 404.024C139.628 403.878 139.522 403.693 139.472 403.49C139.422 403.288 139.43 403.075 139.494 402.876C139.559 402.678 139.678 402.501 139.837 402.366C139.997 402.231 140.191 402.144 140.398 402.114L143.358 401.684C143.538 401.659 143.709 401.59 143.856 401.484C144.003 401.377 144.122 401.237 144.203 401.074L145.528 398.389C145.621 398.202 145.765 398.044 145.943 397.934C146.121 397.825 146.326 397.767 146.536 397.768C146.745 397.769 146.95 397.829 147.127 397.94C147.304 398.052 147.446 398.211 147.538 398.399V398.399Z" fill="#FEC272"/>
<g id="astronaut">
<path id="Vector" d="M133.408 170.849C133.408 170.849 116.408 177.574 113.908 193.909C111.408 210.244 150.038 258.094 150.038 258.094L269.168 193.899L231.503 127.799L133.408 170.849Z" fill="#C7DCF9"/>
<path id="Vector_2" d="M159.748 186.289C159.748 186.289 147.213 199.159 143.368 213.399C139.523 227.639 139.028 253.069 139.668 262.594C158.368 279.899 232.283 265.399 232.283 265.399L303.513 181.609C303.513 181.609 291.438 158.684 285.308 152.399C279.178 146.114 259.308 138.299 236.383 147.524C222.928 166.619 159.748 186.289 159.748 186.289Z" fill="#E1ECFF"/>
<g id="Vector_3" style="mix-blend-mode:multiply">
<path d="M154.153 192.944C154.153 192.944 181.808 201.819 212.938 189.794C244.068 177.769 249.708 143.899 249.708 143.899L236.368 147.529L159.748 186.289L154.153 192.944Z" fill="#E1ECFF"/>
</g>
<path id="Vector_4" d="M266.733 296.839C266.733 296.839 301.698 297.064 311.523 299.574C321.348 302.084 347.353 360.939 358.113 366.574C368.873 372.209 378.013 362.849 389.868 355.899C401.723 348.949 412.588 340.539 412.928 337.029C413.268 333.519 408.233 319.494 403.878 316.664C399.523 313.834 386.878 313.634 380.133 317.954C370.223 290.954 356.133 251.579 343.213 246.159C330.293 240.739 291.138 238.159 291.138 238.159L266.733 296.839Z" fill="#E1ECFF"/>
<g id="Group">
<g id="Vector_5" style="mix-blend-mode:multiply" opacity="0.51">
<path d="M303.513 271.069C303.513 271.069 331.983 274.184 339.848 284.779C347.713 295.374 363.298 360.204 380.743 361.739C381.023 382.739 344.893 390.324 344.893 390.324L258.288 294.094L303.513 271.069Z" fill="#E1ECFF"/>
</g>
</g>
<path id="Vector_6" d="M172.793 291.529C172.793 291.529 194.293 336.624 213.793 348.924C233.293 361.224 268.623 360.229 278.368 368.284C288.113 376.339 286.053 415.034 295.793 425.284C305.533 435.534 319.238 441.814 332.048 440.659C344.858 439.504 355.108 433.359 355.238 427.594C355.368 421.829 354.853 416.829 348.833 413.754C342.813 410.679 334.333 408.119 333.968 404.534C333.603 400.949 326.793 346.369 323.968 331.534C321.143 316.699 299.203 296.064 270.928 285.669C244.153 263.249 203.028 272.854 203.028 272.854L172.793 291.529Z" fill="#E1ECFF"/>
<g id="Vector_7" style="mix-blend-mode:multiply">
<path d="M179.048 303.594C179.048 303.594 203.723 304.854 225.883 295.119C221.648 272.569 208.583 265.909 208.583 265.909L172.793 291.529L179.048 303.594Z" fill="#E1ECFF"/>
</g>
<path id="Vector_8" d="M213.193 68.0988C193.868 57.7538 153.368 54.2639 128.368 85.2689C103.368 116.274 115.828 148.429 126.333 163.399C137.333 179.109 175.143 203.119 215.498 180.569C255.853 158.019 260.083 93.2088 213.193 68.0988Z" fill="#E1ECFF"/>
<path id="Vector_9" d="M209.868 87.0589C227.033 91.1589 238.183 115.244 232.418 138.304C226.653 161.364 206.793 176.869 184.503 176.994C162.213 177.119 140.048 161.899 140.168 133.439C140.288 106.089 172.593 78.1589 209.868 87.0589Z" fill="#1C3177"/>
<g id="Vector_10" style="mix-blend-mode:multiply">
<path d="M160.413 267.189C182.778 256.809 166.048 233.109 188.343 227.719C217.738 231.899 225.868 230.399 225.868 230.399C225.868 230.399 169.633 279.789 160.413 267.189Z" fill="#E1ECFF"/>
</g>
<path id="Vector_11" d="M179.048 203.799L216.268 299.574L268.923 298.324L317.093 267.829L331.443 224.274L296.593 119.729L279.683 168.669L235.868 203.519L179.048 203.799Z" fill="#FF97C9"/>
<path id="Vector_12" d="M160.413 267.189C172.753 266.189 179.038 258.154 182.778 254.589C184.683 252.769 184.303 251.174 183.343 245.924C182.383 240.674 185.713 235.289 190.263 232.984C192.763 239.709 195.833 240.984 198.203 240.669C200.573 240.354 203.008 226.194 210.758 226.319C218.508 226.444 224.723 236.699 225.758 241.819C226.793 246.939 221.788 261.544 215.508 271.794C209.228 282.044 200.368 294.734 180.423 298.704C160.478 302.674 149.138 292.489 142.603 279.614C140.398 275.269 139.603 269.264 139.673 262.574C139.673 262.574 144.138 268.469 160.413 267.189Z" fill="#E1ECFF"/>
<path id="Vector_13" d="M308.598 155.734C308.598 155.734 310.973 163.459 309.373 166.469C307.773 169.479 305.593 171.969 303.993 175.824C302.393 179.679 304.763 194.209 311.808 196.704C318.853 199.199 324.683 192.669 326.543 188.889C328.403 185.109 327.373 175.184 324.618 168.264C321.863 161.344 316.683 155.194 308.598 155.734Z" fill="#E1ECFF"/>
<g id="Vector_14" style="mix-blend-mode:soft-light" opacity="0.48">
<path d="M194.884 115.808C207.189 113.096 216.387 107.369 215.427 103.016C214.468 98.6639 203.715 97.3342 191.41 100.046C179.105 102.759 169.908 108.486 170.867 112.838C171.826 117.191 182.579 118.52 194.884 115.808Z" fill="white"/>
</g>
<g id="Vector_15" style="mix-blend-mode:multiply">
<path d="M222.908 256.179C222.908 256.179 208.753 243.529 206.188 243.529C203.623 243.529 196.793 253.529 198.333 256.179C199.873 258.829 207.783 267.509 216.468 270.179C219.283 264.809 222.908 256.179 222.908 256.179Z" fill="#E1ECFF"/>
</g>
<g id="Vector_16" style="mix-blend-mode:multiply" opacity="0.5">
<path d="M235.868 203.519L268.923 298.324L317.093 267.829L279.683 168.669L235.868 203.519Z" fill="#FF97C9"/>
</g>
<g id="Vector_17" style="mix-blend-mode:multiply">
<path d="M326.803 349.644C321.848 353.749 316.281 357.05 310.303 359.429C304.698 361.589 302.803 366.009 304.498 374.119C306.193 382.229 307.143 394.874 310.643 398.204C314.143 401.534 326.183 399.764 332.423 392.024C330.468 376.774 326.803 349.644 326.803 349.644Z" fill="#E1ECFF"/>
</g>
<g id="Vector_18" style="mix-blend-mode:multiply">
<path d="M359.428 266.959C359.428 266.959 352.428 270.009 353.093 274.874C353.758 279.739 360.908 303.254 363.728 305.374C366.548 307.494 374.893 303.734 374.893 303.734C366.323 279.454 359.428 266.959 359.428 266.959Z" fill="#E1ECFF"/>
</g>
</g>
<path id="srock-md" d="M427.398 154.364C425.093 157.649 423.558 167.004 428.423 168.669C433.288 170.334 436.968 160.709 435.258 155.699C433.548 150.689 428.938 152.169 427.398 154.364Z" fill="#99ADF9"/>
<path id="srock-up" opacity="0.44" d="M430.898 78.4489C427.268 80.1589 421.283 87.5089 424.683 91.3739C428.083 95.2389 436.048 88.7089 437.053 83.5139C438.058 78.3189 433.323 77.3089 430.898 78.4489Z" fill="#99ADF9"/>
<path id="srock-bt" opacity="0.44" d="M89.5576 371.784C86.4176 369.284 77.1826 367.159 75.2126 371.914C73.2426 376.669 82.6226 380.914 87.7126 379.544C92.8026 378.174 91.6476 373.454 89.5576 371.784Z" fill="#99ADF9"/>
<g id="rock-lower">
<path id="Vector_19" d="M64.0276 323.229C58.4626 311.689 76.5976 299.339 92.0276 300.229C107.458 301.119 113.943 315.364 119.408 320.679C130.823 331.769 130.463 342.619 122.558 347.284C114.653 351.949 71.3926 338.494 64.0276 323.229Z" fill="#99ADF9"/>
<g id="Vector_20" style="mix-blend-mode:multiply" opacity="0.64">
<path d="M116.673 317.514C111.088 318.564 111.988 323.559 113.778 328.084C115.568 332.609 121.868 333.899 126.313 329.764C123.428 322.899 116.673 317.514 116.673 317.514Z" fill="#99ADF9"/>
</g>
<g id="Vector_21" style="mix-blend-mode:multiply" opacity="0.64">
<path d="M84.5676 309.979C80.5676 310.424 77.3076 316.214 80.1276 320.909C82.9476 325.604 88.3226 329.024 91.3976 327.744C94.4726 326.464 94.9876 319.544 92.7676 315.104C90.5476 310.664 88.4126 309.549 84.5676 309.979Z" fill="#99ADF9"/>
</g>
</g>
<g id="rock-upper">
<path id="Vector_22" d="M375.308 144.454C370.808 140.514 375.438 121.994 386.068 117.659C396.698 113.324 409.898 118.064 412.718 125.494C415.538 132.924 384.533 152.524 375.308 144.454Z" fill="#99ADF9"/>
<g id="Vector_23" style="mix-blend-mode:multiply" opacity="0.64">
<path d="M400.238 121.649C398.043 122.349 395.818 124.724 396.013 127.289C396.208 129.854 398.448 132.094 400.878 131.789C403.308 131.484 405.378 127.559 404.878 124.739C404.378 121.919 401.913 121.119 400.238 121.649Z" fill="#99ADF9"/>
</g>
<g id="Vector_24" style="mix-blend-mode:multiply" opacity="0.64">
<path d="M376.993 126.649C376.993 126.649 379.993 129.649 379.493 133.054C378.993 136.459 373.823 136.144 373.823 136.144C373.823 136.144 374.593 130.339 376.993 126.649Z" fill="#99ADF9"/>
</g>
</g>
</g>
</svg>
